0
SECTION
2
HEADER
9
$INSUNITS
70
4
0
ENDSEC
0
SECTION
2
TABLES
0
TABLE
2
LTYPE
0
LTYPE
72
65
70
64
2
CONTINUOUS
3
______
73
0
40
0
0
ENDTAB
0
TABLE
2
LAYER
0
LAYER
2
black
70
0
62
0
6
CONTINUOUS
0
ENDTAB
0
ENDSEC
0
SECTION
2
ENTITIES
0
LINE
8
black
10
-11.341198
20
-13.7909292
11
13.5636694
21
-11.6120356
0
ARC
8
black
10
13.4765137
20
-10.6158409
40
1
50
275
51
5
0
LINE
8
black
10
14.4727084
20
-10.5286852
11
12.9274837
21
7.1333141
0
LINE
8
black
10
-17.7933422
20
48.4837032
11
-12.4245484
21
-12.8818902
0
ARC
8
black
10
-11.4283537
20
-12.7947345
40
1
50
185
51
275
0
LINE
8
black
10
4.5860318
20
51.4454646
11
-16.8843032
21
49.5670536
0
ARC
8
black
10
-16.7971475
20
48.5708589
40
1
50
95
51
185
0
LINE
8
black
10
12.9274837
20
7.1333141
11
30.5860318
21
7.1333141
0
ARC
8
black
10
30.5860318
20
8.1333141
40
1
50
270
51
360
0
LINE
8
black
10
31.5860318
20
8.1333141
11
31.5860318
21
15.7058142
0
LINE
8
black
10
23.5860317
20
70.7333141
11
5.5860318
21
70.7333141
0
ARC
8
black
10
5.5860318
20
69.7333141
40
1
50
90
51
180
0
LINE
8
black
10
4.5860318
20
69.7333141
11
4.5860318
21
51.4454646
0
LINE
8
black
10
31.5860318
20
15.7058142
11
42.5860318
21
15.7058142
0
LINE
8
black
10
50.5860317
20
70.7333141
11
50.5860317
21
78.3058142
0
ARC
8
black
10
49.5860317
20
78.3058142
40
1
50
0
51
90
0
LINE
8
black
10
49.5860317
20
79.3058142
11
24.5860317
21
79.3058142
0
ARC
8
black
10
24.5860317
20
78.3058142
40
1
50
90
51
180
0
LINE
8
black
10
23.5860317
20
78.3058142
11
23.5860317
21
70.7333141
0
LINE
8
black
10
43.5860318
20
7.1333141
11
44.0969606
21
7.1333141
0
LINE
8
black
10
42.5860318
20
15.7058142
11
42.5860318
21
8.1333141
0
ARC
8
black
10
43.5860318
20
8.1333141
40
1
50
180
51
270
0
LINE
8
black
10
69.5860318
20
66.9233141
11
69.5860318
21
69.7333141
0
ARC
8
black
10
68.5860318
20
69.7333141
40
1
50
0
51
90
0
LINE
8
black
10
68.5860318
20
70.7333141
11
50.5860317
21
70.7333141
0
LINE
8
black
10
112.0175317
20
-11.8915404
11
112.0175317
21
66.9233141
0
LINE
8
black
10
69.5860318
20
66.9233141
11
112.0175317
21
66.9233141
0
LINE
8
black
10
41.5619206
20
-13.0023825
11
63.3969969
21
-16.8524956
0
LINE
8
black
10
44.0969606
20
7.1333141
11
40.750761
21
-11.8439266
0
ARC
8
black
10
41.7355688
20
-12.0175748
40
1
50
170
51
260
0
LINE
8
black
10
63.3969969
20
-16.8524956
11
80.6345632
21
-23.1264567
0
LINE
8
black
10
80.6345632
20
-23.1264567
11
98.9699816
21
-33.7124155
0
ARC
8
black
10
99.4699816
20
-32.8463901
40
1
50
240
51
330
0
LINE
8
black
10
100.3360071
20
-33.3463901
11
112.0860071
21
-12.9947931
0
ARC
8
black
10
111.2199816
20
-12.4947931
40
1
50
330
51
397.1032124
0
ENDSEC
0
EOF