0
SECTION
2
HEADER
9
$INSUNITS
70
4
0
ENDSEC
0
SECTION
2
TABLES
0
TABLE
2
LTYPE
0
LTYPE
72
65
70
64
2
CONTINUOUS
3
______
73
0
40
0
0
ENDTAB
0
TABLE
2
LAYER
0
LAYER
2
black
70
0
62
0
6
CONTINUOUS
0
ENDTAB
0
ENDSEC
0
SECTION
2
ENTITIES
0
LINE
8
black
10
-8.1813506
20
-9.750154
11
9.750154
21
-8.1813506
0
LINE
8
black
10
9.750154
20
-8.1813506
11
8.1813506
21
9.750154
0
LINE
8
black
10
8.1813506
20
9.750154
11
-9.750154
21
8.1813506
0
LINE
8
black
10
-9.750154
20
8.1813506
11
-8.1813506
21
-9.750154
0
LINE
8
black
10
-9.8416675
20
9.227355
11
8.0898371
21
10.7961584
0
LINE
8
black
10
8.0898371
20
10.7961584
11
6.5210337
21
28.727663
0
LINE
8
black
10
6.5210337
20
28.727663
11
-11.4104709
21
27.1588596
0
LINE
8
black
10
-11.4104709
20
27.1588596
11
-9.8416675
21
9.227355
0
LINE
8
black
10
-11.5019844
20
28.204864
11
6.4295202
21
29.7736674
0
LINE
8
black
10
6.4295202
20
29.7736674
11
4.8607168
21
47.705172
0
LINE
8
black
10
4.8607168
20
47.705172
11
-13.0707878
21
46.1363686
0
LINE
8
black
10
-13.0707878
20
46.1363686
11
-11.5019844
21
28.204864
0
LINE
8
black
10
9.0860318
20
10.8833141
11
27.0860318
21
10.8833141
0
LINE
8
black
10
27.0860318
20
10.8833141
11
27.0860318
21
28.8833141
0
LINE
8
black
10
27.0860318
20
28.8833141
11
9.0860318
21
28.8833141
0
LINE
8
black
10
9.0860318
20
28.8833141
11
9.0860318
21
10.8833141
0
LINE
8
black
10
9.0860318
20
29.9333141
11
27.0860318
21
29.9333141
0
LINE
8
black
10
27.0860318
20
29.9333141
11
27.0860318
21
47.9333141
0
LINE
8
black
10
27.0860318
20
47.9333141
11
9.0860318
21
47.9333141
0
LINE
8
black
10
9.0860318
20
47.9333141
11
9.0860318
21
29.9333141
0
LINE
8
black
10
9.0860318
20
48.9833141
11
27.0860318
21
48.9833141
0
LINE
8
black
10
27.0860318
20
48.9833141
11
27.0860318
21
66.9833141
0
LINE
8
black
10
27.0860318
20
66.9833141
11
9.0860318
21
66.9833141
0
LINE
8
black
10
9.0860318
20
66.9833141
11
9.0860318
21
48.9833141
0
LINE
8
black
10
28.0860317
20
19.4558142
11
46.0860317
21
19.4558142
0
LINE
8
black
10
46.0860317
20
19.4558142
11
46.0860317
21
37.4558142
0
LINE
8
black
10
46.0860317
20
37.4558142
11
28.0860317
21
37.4558142
0
LINE
8
black
10
28.0860317
20
37.4558142
11
28.0860317
21
19.4558142
0
LINE
8
black
10
28.0860317
20
38.5058142
11
46.0860317
21
38.5058142
0
LINE
8
black
10
46.0860317
20
38.5058142
11
46.0860317
21
56.5058142
0
LINE
8
black
10
46.0860317
20
56.5058142
11
28.0860317
21
56.5058142
0
LINE
8
black
10
28.0860317
20
56.5058142
11
28.0860317
21
38.5058142
0
LINE
8
black
10
28.0860317
20
57.5558142
11
46.0860317
21
57.5558142
0
LINE
8
black
10
46.0860317
20
57.5558142
11
46.0860317
21
75.5558142
0
LINE
8
black
10
46.0860317
20
75.5558142
11
28.0860317
21
75.5558142
0
LINE
8
black
10
28.0860317
20
75.5558142
11
28.0860317
21
57.5558142
0
LINE
8
black
10
47.0860318
20
10.8833141
11
65.0860318
21
10.8833141
0
LINE
8
black
10
65.0860318
20
10.8833141
11
65.0860318
21
28.8833141
0
LINE
8
black
10
65.0860318
20
28.8833141
11
47.0860318
21
28.8833141
0
LINE
8
black
10
47.0860318
20
28.8833141
11
47.0860318
21
10.8833141
0
LINE
8
black
10
47.0860318
20
29.9333141
11
65.0860318
21
29.9333141
0
LINE
8
black
10
65.0860318
20
29.9333141
11
65.0860318
21
47.9333141
0
LINE
8
black
10
65.0860318
20
47.9333141
11
47.0860318
21
47.9333141
0
LINE
8
black
10
47.0860318
20
47.9333141
11
47.0860318
21
29.9333141
0
LINE
8
black
10
47.0860318
20
48.9833141
11
65.0860318
21
48.9833141
0
LINE
8
black
10
65.0860318
20
48.9833141
11
65.0860318
21
66.9833141
0
LINE
8
black
10
65.0860318
20
66.9833141
11
47.0860318
21
66.9833141
0
LINE
8
black
10
47.0860318
20
66.9833141
11
47.0860318
21
48.9833141
0
LINE
8
black
10
66.0860317
20
7.0733141
11
84.0860317
21
7.0733141
0
LINE
8
black
10
84.0860317
20
7.0733141
11
84.0860317
21
25.0733141
0
LINE
8
black
10
84.0860317
20
25.0733141
11
66.0860317
21
25.0733141
0
LINE
8
black
10
66.0860317
20
25.0733141
11
66.0860317
21
7.0733141
0
LINE
8
black
10
66.0860317
20
26.1233141
11
84.0860317
21
26.1233141
0
LINE
8
black
10
84.0860317
20
26.1233141
11
84.0860317
21
44.1233141
0
LINE
8
black
10
84.0860317
20
44.1233141
11
66.0860317
21
44.1233141
0
LINE
8
black
10
66.0860317
20
44.1233141
11
66.0860317
21
26.1233141
0
LINE
8
black
10
66.0860317
20
45.1733141
11
84.0860317
21
45.1733141
0
LINE
8
black
10
84.0860317
20
45.1733141
11
84.0860317
21
63.1733141
0
LINE
8
black
10
84.0860317
20
63.1733141
11
66.0860317
21
63.1733141
0
LINE
8
black
10
66.0860317
20
63.1733141
11
66.0860317
21
45.1733141
0
LINE
8
black
10
45.6599284
20
-9.9171221
11
63.386468
21
-13.0427893
0
LINE
8
black
10
63.386468
20
-13.0427893
11
66.5121352
21
4.6837503
0
LINE
8
black
10
66.5121352
20
4.6837503
11
48.7855956
21
7.8094175
0
LINE
8
black
10
48.7855956
20
7.8094175
11
45.6599284
21
-9.9171221
0
LINE
8
black
10
64.3712757
20
-13.2164375
11
81.2857429
21
-19.3728001
0
LINE
8
black
10
81.2857429
20
-19.3728001
11
87.4421055
21
-2.4583329
0
LINE
8
black
10
87.4421055
20
-2.4583329
11
70.5276383
21
3.6980297
0
LINE
8
black
10
70.5276383
20
3.6980297
11
64.3712757
21
-13.2164375
0
LINE
8
black
10
82.2254355
20
-19.7148202
11
97.8138927
21
-28.7148202
0
LINE
8
black
10
97.8138927
20
-28.7148202
11
106.8138927
21
-13.126363
0
LINE
8
black
10
106.8138927
20
-13.126363
11
91.2254355
21
-4.126363
0
LINE
8
black
10
91.2254355
20
-4.126363
11
82.2254355
21
-19.7148202
0
ENDSEC
0
EOF