<svg width="130.017mm" height="113.152mm" viewBox="0 0 130.017 113.152" xmlns="http://www.w3.org/2000/svg"><g id="svgGroup" stroke-linecap="round" fill-rule="evenodd" font-size="9pt" stroke="#000" stroke-width="0.25mm" fill="none" style="stroke:#000;stroke-width:0.25mm;fill:none"><path d="M 6.456 93.097 L 31.61 90.896 L 71.669 94.479 L 81.194 96.158 L 98.432 102.432 L 116.767 113.018 A 1 1 0 0 0 118.133 112.652 L 129.883 92.301 A 1 1 0 0 0 129.815 91.197 L 129.815 12.383 L 87.383 12.383 L 87.383 9.573 A 1 1 0 0 0 86.383 8.573 L 68.383 8.573 L 68.383 1 A 1 1 0 0 0 67.383 0 L 42.383 0 A 1 1 0 0 0 41.383 1 L 41.383 8.573 L 23.383 8.573 A 1 1 0 0 0 22.383 9.573 L 22.383 27.86 L 0.913 29.739 A 1 1 0 0 0 0.004 30.822 L 5.373 92.188 A 1 1 0 0 0 6.456 93.097 Z" id="black" stroke="black" style="stroke:black" vector-effect="non-scaling-stroke"/></g></svg>