0
SECTION
2
HEADER
9
$INSUNITS
70
4
0
ENDSEC
0
SECTION
2
TABLES
0
TABLE
2
LTYPE
0
LTYPE
72
65
70
64
2
CONTINUOUS
3
______
73
0
40
0
0
ENDTAB
0
TABLE
2
LAYER
0
LAYER
2
black
70
0
62
0
6
CONTINUOUS
0
ENDTAB
0
ENDSEC
0
SECTION
2
ENTITIES
0
LINE
8
black
10
-11.341198
20
-13.7909292
11
13.8127181
21
-11.5902467
0
LINE
8
black
10
-17.7933422
20
48.4837032
11
-12.4245484
21
-12.8818902
0
ARC
8
black
10
-11.4283537
20
-12.7947345
40
1
50
185
51
275
0
LINE
8
black
10
4.5860318
20
51.4454646
11
-16.8843032
21
49.5670536
0
ARC
8
black
10
-16.7971475
20
48.5708589
40
1
50
95
51
185
0
LINE
8
black
10
23.5860317
20
70.7333141
11
5.5860318
21
70.7333141
0
ARC
8
black
10
5.5860318
20
69.7333141
40
1
50
90
51
180
0
LINE
8
black
10
4.5860318
20
69.7333141
11
4.5860318
21
51.4454646
0
LINE
8
black
10
50.5860317
20
70.7333141
11
50.5860317
21
78.3058142
0
ARC
8
black
10
49.5860317
20
78.3058142
40
1
50
0
51
90
0
LINE
8
black
10
49.5860317
20
79.3058142
11
24.5860317
21
79.3058142
0
ARC
8
black
10
24.5860317
20
78.3058142
40
1
50
90
51
180
0
LINE
8
black
10
23.5860317
20
78.3058142
11
23.5860317
21
70.7333141
0
LINE
8
black
10
69.5860318
20
66.9233141
11
69.5860318
21
69.7333141
0
ARC
8
black
10
68.5860318
20
69.7333141
40
1
50
0
51
90
0
LINE
8
black
10
68.5860318
20
70.7333141
11
50.5860317
21
70.7333141
0
LINE
8
black
10
112.0175317
20
-11.8915404
11
112.0175317
21
66.9233141
0
LINE
8
black
10
69.5860318
20
66.9233141
11
112.0175317
21
66.9233141
0
LINE
8
black
10
53.8720175
20
-15.1729848
11
63.3969969
21
-16.8524956
0
LINE
8
black
10
63.3969969
20
-16.8524956
11
80.6345632
21
-23.1264567
0
LINE
8
black
10
80.6345632
20
-23.1264567
11
98.9699816
21
-33.7124155
0
ARC
8
black
10
99.4699816
20
-32.8463901
40
1
50
240
51
330
0
LINE
8
black
10
100.3360071
20
-33.3463901
11
112.0860071
21
-12.9947931
0
ARC
8
black
10
111.2199816
20
-12.4947931
40
1
50
330
51
397.1032124
0
LINE
8
black
10
53.8720175
20
-15.1729848
11
13.8127181
21
-11.5902467
0
LINE
8
black
10
-6.2950948
20
-7.5022018
11
7.5022018
21
-6.2950948
0
LINE
8
black
10
7.5022018
20
-6.2950948
11
6.2950948
21
7.5022018
0
LINE
8
black
10
6.2950948
20
7.5022018
11
-7.5022018
21
6.2950948
0
LINE
8
black
10
-7.5022018
20
6.2950948
11
-6.2950948
21
-7.5022018
0
LINE
8
black
10
-7.9554117
20
11.4753072
11
5.8418849
21
12.6824142
0
LINE
8
black
10
5.8418849
20
12.6824142
11
4.6347779
21
26.4797108
0
LINE
8
black
10
4.6347779
20
26.4797108
11
-9.1625187
21
25.2726038
0
LINE
8
black
10
-9.1625187
20
25.2726038
11
-7.9554117
21
11.4753072
0
LINE
8
black
10
-9.6157286
20
30.4528162
11
4.181568
21
31.6599232
0
LINE
8
black
10
4.181568
20
31.6599232
11
2.974461
21
45.4572198
0
LINE
8
black
10
2.974461
20
45.4572198
11
-10.8228356
21
44.2501128
0
LINE
8
black
10
-10.8228356
20
44.2501128
11
-9.6157286
21
30.4528162
0
LINE
8
black
10
11.1610318
20
12.9583141
11
25.0110318
21
12.9583141
0
LINE
8
black
10
25.0110318
20
12.9583141
11
25.0110318
21
26.8083141
0
LINE
8
black
10
25.0110318
20
26.8083141
11
11.1610318
21
26.8083141
0
LINE
8
black
10
11.1610318
20
26.8083141
11
11.1610318
21
12.9583141
0
LINE
8
black
10
11.1610318
20
32.0083141
11
25.0110318
21
32.0083141
0
LINE
8
black
10
25.0110318
20
32.0083141
11
25.0110318
21
45.8583141
0
LINE
8
black
10
25.0110318
20
45.8583141
11
11.1610318
21
45.8583141
0
LINE
8
black
10
11.1610318
20
45.8583141
11
11.1610318
21
32.0083141
0
LINE
8
black
10
11.1610318
20
51.0583141
11
25.0110318
21
51.0583141
0
LINE
8
black
10
25.0110318
20
51.0583141
11
25.0110318
21
64.9083141
0
LINE
8
black
10
25.0110318
20
64.9083141
11
11.1610318
21
64.9083141
0
LINE
8
black
10
11.1610318
20
64.9083141
11
11.1610318
21
51.0583141
0
LINE
8
black
10
30.1610317
20
21.5308142
11
44.0110317
21
21.5308142
0
LINE
8
black
10
44.0110317
20
21.5308142
11
44.0110317
21
35.3808142
0
LINE
8
black
10
44.0110317
20
35.3808142
11
30.1610317
21
35.3808142
0
LINE
8
black
10
30.1610317
20
35.3808142
11
30.1610317
21
21.5308142
0
LINE
8
black
10
30.1610317
20
40.5808142
11
44.0110317
21
40.5808142
0
LINE
8
black
10
44.0110317
20
40.5808142
11
44.0110317
21
54.4308142
0
LINE
8
black
10
44.0110317
20
54.4308142
11
30.1610317
21
54.4308142
0
LINE
8
black
10
30.1610317
20
54.4308142
11
30.1610317
21
40.5808142
0
LINE
8
black
10
30.1610317
20
59.6308142
11
44.0110317
21
59.6308142
0
LINE
8
black
10
44.0110317
20
59.6308142
11
44.0110317
21
73.4808142
0
LINE
8
black
10
44.0110317
20
73.4808142
11
30.1610317
21
73.4808142
0
LINE
8
black
10
30.1610317
20
73.4808142
11
30.1610317
21
59.6308142
0
LINE
8
black
10
49.1610318
20
12.9583141
11
63.0110318
21
12.9583141
0
LINE
8
black
10
63.0110318
20
12.9583141
11
63.0110318
21
26.8083141
0
LINE
8
black
10
63.0110318
20
26.8083141
11
49.1610318
21
26.8083141
0
LINE
8
black
10
49.1610318
20
26.8083141
11
49.1610318
21
12.9583141
0
LINE
8
black
10
49.1610318
20
32.0083141
11
63.0110318
21
32.0083141
0
LINE
8
black
10
63.0110318
20
32.0083141
11
63.0110318
21
45.8583141
0
LINE
8
black
10
63.0110318
20
45.8583141
11
49.1610318
21
45.8583141
0
LINE
8
black
10
49.1610318
20
45.8583141
11
49.1610318
21
32.0083141
0
LINE
8
black
10
49.1610318
20
51.0583141
11
63.0110318
21
51.0583141
0
LINE
8
black
10
63.0110318
20
51.0583141
11
63.0110318
21
64.9083141
0
LINE
8
black
10
63.0110318
20
64.9083141
11
49.1610318
21
64.9083141
0
LINE
8
black
10
49.1610318
20
64.9083141
11
49.1610318
21
51.0583141
0
LINE
8
black
10
68.1610317
20
9.1483141
11
82.0110317
21
9.1483141
0
LINE
8
black
10
82.0110317
20
9.1483141
11
82.0110317
21
22.9983141
0
LINE
8
black
10
82.0110317
20
22.9983141
11
68.1610317
21
22.9983141
0
LINE
8
black
10
68.1610317
20
22.9983141
11
68.1610317
21
9.1483141
0
LINE
8
black
10
68.1610317
20
28.1983141
11
82.0110317
21
28.1983141
0
LINE
8
black
10
82.0110317
20
28.1983141
11
82.0110317
21
42.0483141
0
LINE
8
black
10
82.0110317
20
42.0483141
11
68.1610317
21
42.0483141
0
LINE
8
black
10
68.1610317
20
42.0483141
11
68.1610317
21
28.1983141
0
LINE
8
black
10
68.1610317
20
47.2483141
11
82.0110317
21
47.2483141
0
LINE
8
black
10
82.0110317
20
47.2483141
11
82.0110317
21
61.0983141
0
LINE
8
black
10
82.0110317
20
61.0983141
11
68.1610317
21
61.0983141
0
LINE
8
black
10
68.1610317
20
61.0983141
11
68.1610317
21
47.2483141
0
LINE
8
black
10
48.0637245
20
-8.233966
11
61.7033119
21
-10.6389932
0
LINE
8
black
10
61.7033119
20
-10.6389932
11
64.1083391
21
3.0005942
0
LINE
8
black
10
64.1083391
20
3.0005942
11
50.4687517
21
5.4056214
0
LINE
8
black
10
50.4687517
20
5.4056214
11
48.0637245
21
-8.233966
0
LINE
8
black
10
67.0308297
20
-11.9762671
11
80.0455725
21
-16.7132461
0
LINE
8
black
10
80.0455725
20
-16.7132461
11
84.7825515
21
-3.6985033
0
LINE
8
black
10
84.7825515
20
-3.6985033
11
71.7678087
21
1.0384757
0
LINE
8
black
10
71.7678087
20
1.0384757
11
67.0308297
21
-11.9762671
0
LINE
8
black
10
85.0599382
20
-18.9553175
11
97.05439
21
-25.8803175
0
LINE
8
black
10
97.05439
20
-25.8803175
11
103.97939
21
-13.8858657
0
LINE
8
black
10
103.97939
20
-13.8858657
11
91.9849382
21
-6.9608657
0
LINE
8
black
10
91.9849382
20
-6.9608657
11
85.0599382
21
-18.9553175
0
ENDSEC
0
EOF