<svg width="130.017mm" height="113.152mm" viewBox="0 0 130.017 113.152" xmlns="http://www.w3.org/2000/svg"><g id="svgGroup" stroke-linecap="round" fill-rule="evenodd" font-size="9pt" stroke="#000" stroke-width="0.25mm" fill="none" style="stroke:#000;stroke-width:0.25mm;fill:none"><path d="M 6.456 93.097 L 31.61 90.896 L 71.669 94.479 L 81.194 96.158 L 98.432 102.432 L 116.767 113.018 A 1 1 0 0 0 118.133 112.652 L 129.883 92.301 A 1 1 0 0 0 129.815 91.197 L 129.815 12.383 L 87.383 12.383 L 87.383 9.573 A 1 1 0 0 0 86.383 8.573 L 68.383 8.573 L 68.383 1 A 1 1 0 0 0 67.383 0 L 42.383 0 A 1 1 0 0 0 41.383 1 L 41.383 8.573 L 23.383 8.573 A 1 1 0 0 0 22.383 9.573 L 22.383 27.86 L 0.913 29.739 A 1 1 0 0 0 0.004 30.822 L 5.373 92.188 A 1 1 0 0 0 6.456 93.097 Z M 8.181 48.853 L 21.979 47.646 L 20.772 33.849 L 6.974 35.056 L 8.181 48.853 Z M 11.502 86.808 L 25.299 85.601 L 24.092 71.804 L 10.295 73.011 L 11.502 86.808 Z M 9.842 67.831 L 23.639 66.623 L 22.432 52.826 L 8.635 54.033 L 9.842 67.831 Z M 65.861 87.54 L 79.5 89.945 L 81.905 76.305 L 68.266 73.9 L 65.861 87.54 Z M 84.828 91.282 L 97.843 96.019 L 102.58 83.004 L 89.565 78.267 L 84.828 91.282 Z M 66.958 47.298 L 80.808 47.298 L 80.808 33.448 L 66.958 33.448 L 66.958 47.298 Z M 28.958 47.298 L 42.808 47.298 L 42.808 33.448 L 28.958 33.448 L 28.958 47.298 Z M 47.958 38.725 L 61.808 38.725 L 61.808 24.875 L 47.958 24.875 L 47.958 38.725 Z M 28.958 66.348 L 42.808 66.348 L 42.808 52.498 L 28.958 52.498 L 28.958 66.348 Z M 47.958 57.775 L 61.808 57.775 L 61.808 43.925 L 47.958 43.925 L 47.958 57.775 Z M 66.958 66.348 L 80.808 66.348 L 80.808 52.498 L 66.958 52.498 L 66.958 66.348 Z M 66.958 28.248 L 80.808 28.248 L 80.808 14.398 L 66.958 14.398 L 66.958 28.248 Z M 85.958 70.158 L 99.808 70.158 L 99.808 56.308 L 85.958 56.308 L 85.958 70.158 Z M 85.958 32.058 L 99.808 32.058 L 99.808 18.208 L 85.958 18.208 L 85.958 32.058 Z M 28.958 28.248 L 42.808 28.248 L 42.808 14.398 L 28.958 14.398 L 28.958 28.248 Z M 47.958 19.675 L 61.808 19.675 L 61.808 5.825 L 47.958 5.825 L 47.958 19.675 Z M 85.958 51.108 L 99.808 51.108 L 99.808 37.258 L 85.958 37.258 L 85.958 51.108 Z M 102.857 98.261 L 114.852 105.186 L 121.777 93.192 L 109.782 86.267 L 102.857 98.261 Z" id="black" stroke="black" style="stroke:black" vector-effect="non-scaling-stroke"/></g></svg>