<svg width="114.802mm" height="99.361mm" viewBox="0 0 114.802 99.361" xmlns="http://www.w3.org/2000/svg"><g id="svgGroup" stroke-linecap="round" fill-rule="evenodd" font-size="9pt" stroke="#000" stroke-width="0.25mm" fill="none" style="stroke:#000;stroke-width:0.25mm;fill:none"><path d="M 1.207 43.028 L 15.004 41.821 L 13.797 28.024 L 0 29.231 L 1.207 43.028 Z M 4.528 80.983 L 18.325 79.776 L 17.118 65.979 L 3.321 67.186 L 4.528 80.983 Z M 2.867 62.006 L 16.665 60.798 L 15.458 47.001 L 1.66 48.208 L 2.867 62.006 Z M 58.887 81.715 L 72.526 84.12 L 74.931 70.48 L 61.292 68.075 L 58.887 81.715 Z M 77.854 85.457 L 90.868 90.194 L 95.605 77.179 L 82.591 72.442 L 77.854 85.457 Z M 59.984 41.473 L 73.834 41.473 L 73.834 27.623 L 59.984 27.623 L 59.984 41.473 Z M 21.984 41.473 L 35.834 41.473 L 35.834 27.623 L 21.984 27.623 L 21.984 41.473 Z M 40.984 32.9 L 54.834 32.9 L 54.834 19.05 L 40.984 19.05 L 40.984 32.9 Z M 21.984 60.523 L 35.834 60.523 L 35.834 46.673 L 21.984 46.673 L 21.984 60.523 Z M 40.984 51.95 L 54.834 51.95 L 54.834 38.1 L 40.984 38.1 L 40.984 51.95 Z M 59.984 60.523 L 73.834 60.523 L 73.834 46.673 L 59.984 46.673 L 59.984 60.523 Z M 59.984 22.423 L 73.834 22.423 L 73.834 8.573 L 59.984 8.573 L 59.984 22.423 Z M 78.984 64.333 L 92.834 64.333 L 92.834 50.483 L 78.984 50.483 L 78.984 64.333 Z M 78.984 26.233 L 92.834 26.233 L 92.834 12.383 L 78.984 12.383 L 78.984 26.233 Z M 21.984 22.423 L 35.834 22.423 L 35.834 8.573 L 21.984 8.573 L 21.984 22.423 Z M 40.984 13.85 L 54.834 13.85 L 54.834 0 L 40.984 0 L 40.984 13.85 Z M 78.984 45.283 L 92.834 45.283 L 92.834 31.433 L 78.984 31.433 L 78.984 45.283 Z M 95.883 92.436 L 107.877 99.361 L 114.802 87.367 L 102.808 80.442 L 95.883 92.436 Z" id="black" stroke="black" style="stroke:black" vector-effect="non-scaling-stroke"/></g></svg>