%TF.GenerationSoftware,KiCad,Pcbnew,(6.0.0)*%
%TF.CreationDate,2022-12-29T10:21:43-08:00*%
%TF.ProjectId,mine,6d696e65-2e6b-4696-9361-645f70636258,v1.0.0*%
%TF.SameCoordinates,Original*%
%TF.FileFunction,Legend,Top*%
%TF.FilePolarity,Positive*%
%FSLAX46Y46*%
G04 Gerber Fmt 4.6, Leading zero omitted, Abs format (unit mm)*
G04 Created by KiCad (PCBNEW (6.0.0)) date 2022-12-29 10:21:43*
%MOMM*%
%LPD*%
G01*
G04 APERTURE LIST*
%ADD10C,0.200000*%
%ADD11C,0.300000*%
%ADD12C,0.150000*%
%ADD13C,0.120000*%
%ADD14C,0.100000*%
G04 APERTURE END LIST*
D10*
X138330327Y-56645814D02*
X138330327Y-55375814D01*
X140362327Y-56645814D02*
X140362327Y-52581814D01*
X140362327Y-52581814D02*
X139854327Y-52073814D01*
D11*
X139282898Y-106028956D02*
X140425755Y-106028956D01*
X139854327Y-106600385D02*
X139854327Y-105457528D01*
D12*
X119113660Y-51764194D02*
X118780327Y-51288004D01*
X118542231Y-51764194D02*
X118542231Y-50764194D01*
X118923184Y-50764194D01*
X119018422Y-50811814D01*
X119066041Y-50859433D01*
X119113660Y-50954671D01*
X119113660Y-51097528D01*
X119066041Y-51192766D01*
X119018422Y-51240385D01*
X118923184Y-51288004D01*
X118542231Y-51288004D01*
X120066041Y-51764194D02*
X119494612Y-51764194D01*
X119780327Y-51764194D02*
X119780327Y-50764194D01*
X119685088Y-50907052D01*
X119589850Y-51002290D01*
X119494612Y-51049909D01*
X118986660Y-44048956D02*
X118939041Y-44096575D01*
X118796184Y-44144194D01*
X118700946Y-44144194D01*
X118558088Y-44096575D01*
X118462850Y-44001337D01*
X118415231Y-43906099D01*
X118367612Y-43715623D01*
X118367612Y-43572766D01*
X118415231Y-43382290D01*
X118462850Y-43287052D01*
X118558088Y-43191814D01*
X118700946Y-43144194D01*
X118796184Y-43144194D01*
X118939041Y-43191814D01*
X118986660Y-43239433D01*
X119319993Y-43144194D02*
X119939041Y-43144194D01*
X119605707Y-43525147D01*
X119748565Y-43525147D01*
X119843803Y-43572766D01*
X119891422Y-43620385D01*
X119939041Y-43715623D01*
X119939041Y-43953718D01*
X119891422Y-44048956D01*
X119843803Y-44096575D01*
X119748565Y-44144194D01*
X119462850Y-44144194D01*
X119367612Y-44096575D01*
X119319993Y-44048956D01*
D10*
X70639469Y-102123814D02*
X70496612Y-102052385D01*
X70282327Y-102052385D01*
X70068041Y-102123814D01*
X69925184Y-102266671D01*
X69853755Y-102409528D01*
X69782327Y-102695242D01*
X69782327Y-102909528D01*
X69853755Y-103195242D01*
X69925184Y-103338099D01*
X70068041Y-103480956D01*
X70282327Y-103552385D01*
X70425184Y-103552385D01*
X70639469Y-103480956D01*
X70710898Y-103409528D01*
X70710898Y-102909528D01*
X70425184Y-102909528D01*
X71353755Y-103552385D02*
X71353755Y-102052385D01*
X72210898Y-103552385D01*
X72210898Y-102052385D01*
X72925184Y-103552385D02*
X72925184Y-102052385D01*
X73282327Y-102052385D01*
X73496612Y-102123814D01*
X73639469Y-102266671D01*
X73710898Y-102409528D01*
X73782327Y-102695242D01*
X73782327Y-102909528D01*
X73710898Y-103195242D01*
X73639469Y-103338099D01*
X73496612Y-103480956D01*
X73282327Y-103552385D01*
X72925184Y-103552385D01*
D12*
X118986660Y-46588956D02*
X118939041Y-46636575D01*
X118796184Y-46684194D01*
X118700946Y-46684194D01*
X118558088Y-46636575D01*
X118462850Y-46541337D01*
X118415231Y-46446099D01*
X118367612Y-46255623D01*
X118367612Y-46112766D01*
X118415231Y-45922290D01*
X118462850Y-45827052D01*
X118558088Y-45731814D01*
X118700946Y-45684194D01*
X118796184Y-45684194D01*
X118939041Y-45731814D01*
X118986660Y-45779433D01*
X119843803Y-46017528D02*
X119843803Y-46684194D01*
X119605707Y-45636575D02*
X119367612Y-46350861D01*
X119986660Y-46350861D01*
X137909660Y-58114194D02*
X137576327Y-57638004D01*
X137338231Y-58114194D02*
X137338231Y-57114194D01*
X137719184Y-57114194D01*
X137814422Y-57161814D01*
X137862041Y-57209433D01*
X137909660Y-57304671D01*
X137909660Y-57447528D01*
X137862041Y-57542766D01*
X137814422Y-57590385D01*
X137719184Y-57638004D01*
X137338231Y-57638004D01*
X138766803Y-57447528D02*
X138766803Y-58114194D01*
X138528707Y-57066575D02*
X138290612Y-57780861D01*
X138909660Y-57780861D01*
X118986660Y-38968956D02*
X118939041Y-39016575D01*
X118796184Y-39064194D01*
X118700946Y-39064194D01*
X118558088Y-39016575D01*
X118462850Y-38921337D01*
X118415231Y-38826099D01*
X118367612Y-38635623D01*
X118367612Y-38492766D01*
X118415231Y-38302290D01*
X118462850Y-38207052D01*
X118558088Y-38111814D01*
X118700946Y-38064194D01*
X118796184Y-38064194D01*
X118939041Y-38111814D01*
X118986660Y-38159433D01*
X119939041Y-39064194D02*
X119367612Y-39064194D01*
X119653327Y-39064194D02*
X119653327Y-38064194D01*
X119558088Y-38207052D01*
X119462850Y-38302290D01*
X119367612Y-38349909D01*
X140449660Y-58114194D02*
X140116327Y-57638004D01*
X139878231Y-58114194D02*
X139878231Y-57114194D01*
X140259184Y-57114194D01*
X140354422Y-57161814D01*
X140402041Y-57209433D01*
X140449660Y-57304671D01*
X140449660Y-57447528D01*
X140402041Y-57542766D01*
X140354422Y-57590385D01*
X140259184Y-57638004D01*
X139878231Y-57638004D01*
X140782993Y-57114194D02*
X141402041Y-57114194D01*
X141068707Y-57495147D01*
X141211565Y-57495147D01*
X141306803Y-57542766D01*
X141354422Y-57590385D01*
X141402041Y-57685623D01*
X141402041Y-57923718D01*
X141354422Y-58018956D01*
X141306803Y-58066575D01*
X141211565Y-58114194D01*
X140925850Y-58114194D01*
X140830612Y-58066575D01*
X140782993Y-58018956D01*
D10*
X69925184Y-109672385D02*
X70853755Y-109672385D01*
X70353755Y-110243814D01*
X70568041Y-110243814D01*
X70710898Y-110315242D01*
X70782327Y-110386671D01*
X70853755Y-110529528D01*
X70853755Y-110886671D01*
X70782327Y-111029528D01*
X70710898Y-111100956D01*
X70568041Y-111172385D01*
X70139469Y-111172385D01*
X69996612Y-111100956D01*
X69925184Y-111029528D01*
X71282327Y-109672385D02*
X71782327Y-111172385D01*
X72282327Y-109672385D01*
X72639469Y-109672385D02*
X73568041Y-109672385D01*
X73068041Y-110243814D01*
X73282327Y-110243814D01*
X73425184Y-110315242D01*
X73496612Y-110386671D01*
X73568041Y-110529528D01*
X73568041Y-110886671D01*
X73496612Y-111029528D01*
X73425184Y-111100956D01*
X73282327Y-111172385D01*
X72853755Y-111172385D01*
X72710898Y-111100956D01*
X72639469Y-111029528D01*
D12*
X118986660Y-49128956D02*
X118939041Y-49176575D01*
X118796184Y-49224194D01*
X118700946Y-49224194D01*
X118558088Y-49176575D01*
X118462850Y-49081337D01*
X118415231Y-48986099D01*
X118367612Y-48795623D01*
X118367612Y-48652766D01*
X118415231Y-48462290D01*
X118462850Y-48367052D01*
X118558088Y-48271814D01*
X118700946Y-48224194D01*
X118796184Y-48224194D01*
X118939041Y-48271814D01*
X118986660Y-48319433D01*
X119891422Y-48224194D02*
X119415231Y-48224194D01*
X119367612Y-48700385D01*
X119415231Y-48652766D01*
X119510469Y-48605147D01*
X119748565Y-48605147D01*
X119843803Y-48652766D01*
X119891422Y-48700385D01*
X119939041Y-48795623D01*
X119939041Y-49033718D01*
X119891422Y-49128956D01*
X119843803Y-49176575D01*
X119748565Y-49224194D01*
X119510469Y-49224194D01*
X119415231Y-49176575D01*
X119367612Y-49128956D01*
X119113660Y-54304194D02*
X118780327Y-53828004D01*
X118542231Y-54304194D02*
X118542231Y-53304194D01*
X118923184Y-53304194D01*
X119018422Y-53351814D01*
X119066041Y-53399433D01*
X119113660Y-53494671D01*
X119113660Y-53637528D01*
X119066041Y-53732766D01*
X119018422Y-53780385D01*
X118923184Y-53828004D01*
X118542231Y-53828004D01*
X119494612Y-53399433D02*
X119542231Y-53351814D01*
X119637469Y-53304194D01*
X119875565Y-53304194D01*
X119970803Y-53351814D01*
X120018422Y-53399433D01*
X120066041Y-53494671D01*
X120066041Y-53589909D01*
X120018422Y-53732766D01*
X119446993Y-54304194D01*
X120066041Y-54304194D01*
D11*
X141314898Y-106028956D02*
X142457755Y-106028956D01*
D10*
X69960898Y-106092385D02*
X69960898Y-104592385D01*
X70318041Y-104592385D01*
X70532327Y-104663814D01*
X70675184Y-104806671D01*
X70746612Y-104949528D01*
X70818041Y-105235242D01*
X70818041Y-105449528D01*
X70746612Y-105735242D01*
X70675184Y-105878099D01*
X70532327Y-106020956D01*
X70318041Y-106092385D01*
X69960898Y-106092385D01*
X72246612Y-106092385D02*
X71389469Y-106092385D01*
X71818041Y-106092385D02*
X71818041Y-104592385D01*
X71675184Y-104806671D01*
X71532327Y-104949528D01*
X71389469Y-105020956D01*
X73175184Y-104592385D02*
X73318041Y-104592385D01*
X73460898Y-104663814D01*
X73532327Y-104735242D01*
X73603755Y-104878099D01*
X73675184Y-105163814D01*
X73675184Y-105520956D01*
X73603755Y-105806671D01*
X73532327Y-105949528D01*
X73460898Y-106020956D01*
X73318041Y-106092385D01*
X73175184Y-106092385D01*
X73032327Y-106020956D01*
X72960898Y-105949528D01*
X72889469Y-105806671D01*
X72818041Y-105520956D01*
X72818041Y-105163814D01*
X72889469Y-104878099D01*
X72960898Y-104735242D01*
X73032327Y-104663814D01*
X73175184Y-104592385D01*
D12*
X118986660Y-41508956D02*
X118939041Y-41556575D01*
X118796184Y-41604194D01*
X118700946Y-41604194D01*
X118558088Y-41556575D01*
X118462850Y-41461337D01*
X118415231Y-41366099D01*
X118367612Y-41175623D01*
X118367612Y-41032766D01*
X118415231Y-40842290D01*
X118462850Y-40747052D01*
X118558088Y-40651814D01*
X118700946Y-40604194D01*
X118796184Y-40604194D01*
X118939041Y-40651814D01*
X118986660Y-40699433D01*
X119367612Y-40699433D02*
X119415231Y-40651814D01*
X119510469Y-40604194D01*
X119748565Y-40604194D01*
X119843803Y-40651814D01*
X119891422Y-40699433D01*
X119939041Y-40794671D01*
X119939041Y-40889909D01*
X119891422Y-41032766D01*
X119319993Y-41604194D01*
X119939041Y-41604194D01*
D10*
X71437184Y-108632385D02*
X71437184Y-107132385D01*
X71794327Y-107132385D01*
X72008612Y-107203814D01*
X72151469Y-107346671D01*
X72222898Y-107489528D01*
X72294327Y-107775242D01*
X72294327Y-107989528D01*
X72222898Y-108275242D01*
X72151469Y-108418099D01*
X72008612Y-108560956D01*
X71794327Y-108632385D01*
X71437184Y-108632385D01*
X73008612Y-108632385D02*
X73294327Y-108632385D01*
X73437184Y-108560956D01*
X73508612Y-108489528D01*
X73651469Y-108275242D01*
X73722898Y-107989528D01*
X73722898Y-107418099D01*
X73651469Y-107275242D01*
X73580041Y-107203814D01*
X73437184Y-107132385D01*
X73151469Y-107132385D01*
X73008612Y-107203814D01*
X72937184Y-107275242D01*
X72865755Y-107418099D01*
X72865755Y-107775242D01*
X72937184Y-107918099D01*
X73008612Y-107989528D01*
X73151469Y-108060956D01*
X73437184Y-108060956D01*
X73580041Y-107989528D01*
X73651469Y-107918099D01*
X73722898Y-107775242D01*
D12*
%TO.C,MCU1*%
%TO.C,BAT\u002A\u002A*%
X127767631Y-66431394D02*
X127291441Y-66431394D01*
X127291441Y-65431394D01*
X128100965Y-66431394D02*
X128100965Y-65764728D01*
X128100965Y-65431394D02*
X128053346Y-65479014D01*
X128100965Y-65526633D01*
X128148584Y-65479014D01*
X128100965Y-65431394D01*
X128100965Y-65526633D01*
X128577155Y-66431394D02*
X128577155Y-65431394D01*
X128958107Y-65431394D01*
X129053346Y-65479014D01*
X129100965Y-65526633D01*
X129148584Y-65621871D01*
X129148584Y-65764728D01*
X129100965Y-65859966D01*
X129053346Y-65907585D01*
X128958107Y-65955204D01*
X128577155Y-65955204D01*
X129720012Y-66431394D02*
X129624774Y-66383775D01*
X129577155Y-66336156D01*
X129529536Y-66240918D01*
X129529536Y-65955204D01*
X129577155Y-65859966D01*
X129624774Y-65812347D01*
X129720012Y-65764728D01*
X129862869Y-65764728D01*
X129958107Y-65812347D01*
X130005727Y-65859966D01*
X130053346Y-65955204D01*
X130053346Y-66240918D01*
X130005727Y-66336156D01*
X129958107Y-66383775D01*
X129862869Y-66431394D01*
X129720012Y-66431394D01*
X130243822Y-66526633D02*
X131005727Y-66526633D01*
X131148584Y-65431394D02*
X131815250Y-65431394D01*
X131386679Y-66431394D01*
X132672393Y-65431394D02*
X132196203Y-65431394D01*
X132148584Y-65907585D01*
X132196203Y-65859966D01*
X132291441Y-65812347D01*
X132529536Y-65812347D01*
X132624774Y-65859966D01*
X132672393Y-65907585D01*
X132720012Y-66002823D01*
X132720012Y-66240918D01*
X132672393Y-66336156D01*
X132624774Y-66383775D01*
X132529536Y-66431394D01*
X132291441Y-66431394D01*
X132196203Y-66383775D01*
X132148584Y-66336156D01*
X133339060Y-65431394D02*
X133434298Y-65431394D01*
X133529536Y-65479014D01*
X133577155Y-65526633D01*
X133624774Y-65621871D01*
X133672393Y-65812347D01*
X133672393Y-66050442D01*
X133624774Y-66240918D01*
X133577155Y-66336156D01*
X133529536Y-66383775D01*
X133434298Y-66431394D01*
X133339060Y-66431394D01*
X133243822Y-66383775D01*
X133196203Y-66336156D01*
X133148584Y-66240918D01*
X133100965Y-66050442D01*
X133100965Y-65812347D01*
X133148584Y-65621871D01*
X133196203Y-65526633D01*
X133243822Y-65479014D01*
X133339060Y-65431394D01*
X134100965Y-66431394D02*
X134100965Y-65764728D01*
X134100965Y-65859966D02*
X134148584Y-65812347D01*
X134243822Y-65764728D01*
X134386679Y-65764728D01*
X134481917Y-65812347D01*
X134529536Y-65907585D01*
X134529536Y-66431394D01*
X134529536Y-65907585D02*
X134577155Y-65812347D01*
X134672393Y-65764728D01*
X134815250Y-65764728D01*
X134910488Y-65812347D01*
X134958107Y-65907585D01*
X134958107Y-66431394D01*
X135386679Y-66145680D02*
X135862869Y-66145680D01*
X135291441Y-66431394D02*
X135624774Y-65431394D01*
X135958107Y-66431394D01*
X136291441Y-66431394D02*
X136291441Y-65431394D01*
X136720012Y-66431394D02*
X136720012Y-65907585D01*
X136672393Y-65812347D01*
X136577155Y-65764728D01*
X136434298Y-65764728D01*
X136339060Y-65812347D01*
X136291441Y-65859966D01*
X128553346Y-68526633D02*
X128600965Y-68479014D01*
X128696203Y-68431394D01*
X128934298Y-68431394D01*
X129029536Y-68479014D01*
X129077155Y-68526633D01*
X129124774Y-68621871D01*
X129124774Y-68717109D01*
X129077155Y-68859966D01*
X128505727Y-69431394D01*
X129124774Y-69431394D01*
X129505727Y-68526633D02*
X129553346Y-68479014D01*
X129648584Y-68431394D01*
X129886679Y-68431394D01*
X129981917Y-68479014D01*
X130029536Y-68526633D01*
X130077155Y-68621871D01*
X130077155Y-68717109D01*
X130029536Y-68859966D01*
X129458107Y-69431394D01*
X130077155Y-69431394D01*
X130410488Y-69431394D02*
X130934298Y-68764728D01*
X130410488Y-68764728D02*
X130934298Y-69431394D01*
X131743822Y-68764728D02*
X131743822Y-69431394D01*
X131505727Y-68383775D02*
X131267631Y-69098061D01*
X131886679Y-69098061D01*
X132743822Y-68431394D02*
X132267631Y-68431394D01*
X132220012Y-68907585D01*
X132267631Y-68859966D01*
X132362869Y-68812347D01*
X132600965Y-68812347D01*
X132696203Y-68859966D01*
X132743822Y-68907585D01*
X132791441Y-69002823D01*
X132791441Y-69240918D01*
X132743822Y-69336156D01*
X132696203Y-69383775D01*
X132600965Y-69431394D01*
X132362869Y-69431394D01*
X132267631Y-69383775D01*
X132220012Y-69336156D01*
X133220012Y-69431394D02*
X133220012Y-68764728D01*
X133220012Y-68859966D02*
X133267631Y-68812347D01*
X133362869Y-68764728D01*
X133505727Y-68764728D01*
X133600965Y-68812347D01*
X133648584Y-68907585D01*
X133648584Y-69431394D01*
X133648584Y-68907585D02*
X133696203Y-68812347D01*
X133791441Y-68764728D01*
X133934298Y-68764728D01*
X134029536Y-68812347D01*
X134077155Y-68907585D01*
X134077155Y-69431394D01*
X134553346Y-69431394D02*
X134553346Y-68764728D01*
X134553346Y-68859966D02*
X134600965Y-68812347D01*
X134696203Y-68764728D01*
X134839060Y-68764728D01*
X134934298Y-68812347D01*
X134981917Y-68907585D01*
X134981917Y-69431394D01*
X134981917Y-68907585D02*
X135029536Y-68812347D01*
X135124774Y-68764728D01*
X135267631Y-68764728D01*
X135362869Y-68812347D01*
X135410488Y-68907585D01*
X135410488Y-69431394D01*
%TO.C,J2*%
X143410593Y-42204994D02*
X143410593Y-42919280D01*
X143362974Y-43062137D01*
X143267736Y-43157375D01*
X143124879Y-43204994D01*
X143029641Y-43204994D01*
X143839165Y-42300233D02*
X143886784Y-42252614D01*
X143982022Y-42204994D01*
X144220117Y-42204994D01*
X144315355Y-42252614D01*
X144362974Y-42300233D01*
X144410593Y-42395471D01*
X144410593Y-42490709D01*
X144362974Y-42633566D01*
X143791546Y-43204994D01*
X144410593Y-43204994D01*
D13*
%TO.C,REF\u002A\u002A*%
X135726167Y-110698852D02*
X142498486Y-114608852D01*
X143712845Y-109305520D02*
X145098486Y-110105520D01*
X139949025Y-111104647D02*
X139449025Y-111970673D01*
X142958486Y-113812109D02*
X141572845Y-113012109D01*
X140363385Y-107186956D02*
X139863385Y-108052981D01*
X143572845Y-109548007D02*
X144625066Y-110155507D01*
X143572845Y-109548007D02*
X143712845Y-109305520D01*
X144172845Y-108508777D02*
X143712845Y-109305520D01*
X141749025Y-107986956D02*
X140363385Y-107186956D01*
X145098486Y-110105520D02*
X145558486Y-109308777D01*
X138063385Y-111170673D02*
X138563385Y-110304647D01*
X140113385Y-107619969D02*
X138156167Y-106489969D01*
X141282038Y-109795802D02*
X140782038Y-110661827D01*
X138563385Y-110304647D02*
X139949025Y-111104647D01*
X138786167Y-105398777D02*
X135726167Y-110698852D01*
X139449025Y-111970673D02*
X138063385Y-111170673D01*
X141112845Y-113808852D02*
X141572845Y-113012109D01*
X142498486Y-114608852D02*
X142958486Y-113812109D01*
X141572845Y-113012109D02*
X141712845Y-112769622D01*
X137506167Y-107615802D02*
X141282038Y-109795802D01*
X139863385Y-108052981D02*
X137906167Y-106922981D01*
X140782038Y-110661827D02*
X137006167Y-108481827D01*
X141249025Y-108852981D02*
X141749025Y-107986956D01*
X145558486Y-109308777D02*
X138786167Y-105398777D01*
X139863385Y-108052981D02*
X141249025Y-108852981D01*
D14*
%TO.C,D14*%
X109190000Y-73512500D02*
X109790000Y-73112500D01*
X109190000Y-73512500D02*
X109190000Y-72962500D01*
X108790000Y-73512500D02*
X109190000Y-73512500D01*
X109190000Y-73512500D02*
X109190000Y-74062500D01*
X109790000Y-73912500D02*
X109190000Y-73512500D01*
X109790000Y-73112500D02*
X109790000Y-73912500D01*
X109790000Y-73512500D02*
X110290000Y-73512500D01*
%TO.C,D15*%
X109190000Y-54462500D02*
X109790000Y-54062500D01*
X109790000Y-54862500D02*
X109190000Y-54462500D01*
X109190000Y-54462500D02*
X109190000Y-55012500D01*
X109790000Y-54062500D02*
X109790000Y-54862500D01*
X108790000Y-54462500D02*
X109190000Y-54462500D01*
X109190000Y-54462500D02*
X109190000Y-53912500D01*
X109790000Y-54462500D02*
X110290000Y-54462500D01*
D13*
%TO.C,REF\u002A\u002A*%
X74262327Y-101289814D02*
X75592327Y-101289814D01*
X76922327Y-103889814D02*
X76922327Y-111569814D01*
X74262327Y-103889814D02*
X76922327Y-103889814D01*
X74262327Y-111569814D02*
X76922327Y-111569814D01*
X74262327Y-103889814D02*
X74262327Y-111569814D01*
X74262327Y-102619814D02*
X74262327Y-101289814D01*
D14*
%TO.C,D12*%
X90190000Y-50652500D02*
X90190000Y-51202500D01*
X90190000Y-50652500D02*
X90790000Y-50252500D01*
X90790000Y-50652500D02*
X91290000Y-50652500D01*
X90190000Y-50652500D02*
X90190000Y-50102500D01*
X89790000Y-50652500D02*
X90190000Y-50652500D01*
X90790000Y-50252500D02*
X90790000Y-51052500D01*
X90790000Y-51052500D02*
X90190000Y-50652500D01*
%TO.C,D4*%
X52190000Y-88752500D02*
X52790000Y-88352500D01*
X52190000Y-88752500D02*
X52190000Y-89302500D01*
X52790000Y-88352500D02*
X52790000Y-89152500D01*
X52190000Y-88752500D02*
X52190000Y-88202500D01*
X51790000Y-88752500D02*
X52190000Y-88752500D01*
X52790000Y-89152500D02*
X52190000Y-88752500D01*
X52790000Y-88752500D02*
X53290000Y-88752500D01*
%TO.C,D1*%
X34142601Y-108682155D02*
X34541079Y-108647293D01*
X35103933Y-108196521D02*
X35173658Y-108993477D01*
X35138796Y-108594999D02*
X35636893Y-108551421D01*
X35173658Y-108993477D02*
X34541079Y-108647293D01*
X34541079Y-108647293D02*
X34589015Y-109195200D01*
X34541079Y-108647293D02*
X35103933Y-108196521D01*
X34541079Y-108647293D02*
X34493143Y-108099385D01*
%TO.C,D11*%
X90190000Y-69702500D02*
X90790000Y-69302500D01*
X90190000Y-69702500D02*
X90190000Y-70252500D01*
X90190000Y-69702500D02*
X90190000Y-69152500D01*
X89790000Y-69702500D02*
X90190000Y-69702500D01*
X90790000Y-69702500D02*
X91290000Y-69702500D01*
X90790000Y-70102500D02*
X90190000Y-69702500D01*
X90790000Y-69302500D02*
X90790000Y-70102500D01*
%TO.C,D10*%
X90790000Y-89152500D02*
X90190000Y-88752500D01*
X90190000Y-88752500D02*
X90190000Y-88202500D01*
X90790000Y-88352500D02*
X90790000Y-89152500D01*
X90190000Y-88752500D02*
X90790000Y-88352500D01*
X90190000Y-88752500D02*
X90190000Y-89302500D01*
X90790000Y-88752500D02*
X91290000Y-88752500D01*
X89790000Y-88752500D02*
X90190000Y-88752500D01*
%TO.C,D7*%
X71790000Y-80180000D02*
X72290000Y-80180000D01*
X70790000Y-80180000D02*
X71190000Y-80180000D01*
X71190000Y-80180000D02*
X71190000Y-79630000D01*
X71190000Y-80180000D02*
X71190000Y-80730000D01*
X71790000Y-79780000D02*
X71790000Y-80580000D01*
X71190000Y-80180000D02*
X71790000Y-79780000D01*
X71790000Y-80580000D02*
X71190000Y-80180000D01*
%TO.C,D18*%
X126890138Y-124165123D02*
X126490138Y-124857943D01*
X126170523Y-124211533D02*
X125895523Y-124687847D01*
X126690138Y-124511533D02*
X127123151Y-124761533D01*
X126170523Y-124211533D02*
X126890138Y-124165123D01*
X126490138Y-124857943D02*
X126170523Y-124211533D01*
X125824113Y-124011533D02*
X126170523Y-124211533D01*
X126170523Y-124211533D02*
X126445523Y-123735219D01*
%TO.C,D9*%
X71790000Y-41680000D02*
X71790000Y-42480000D01*
X71790000Y-42480000D02*
X71190000Y-42080000D01*
X70790000Y-42080000D02*
X71190000Y-42080000D01*
X71790000Y-42080000D02*
X72290000Y-42080000D01*
X71190000Y-42080000D02*
X71190000Y-42630000D01*
X71190000Y-42080000D02*
X71190000Y-41530000D01*
X71190000Y-42080000D02*
X71790000Y-41680000D01*
%TO.C,D5*%
X52790000Y-69302500D02*
X52790000Y-70102500D01*
X52190000Y-69702500D02*
X52790000Y-69302500D01*
X51790000Y-69702500D02*
X52190000Y-69702500D01*
X52790000Y-70102500D02*
X52190000Y-69702500D01*
X52190000Y-69702500D02*
X52190000Y-69152500D01*
X52190000Y-69702500D02*
X52190000Y-70252500D01*
X52790000Y-69702500D02*
X53290000Y-69702500D01*
%TO.C,D13*%
X109190000Y-92562500D02*
X109190000Y-93112500D01*
X109190000Y-92562500D02*
X109790000Y-92162500D01*
X109790000Y-92162500D02*
X109790000Y-92962500D01*
X108790000Y-92562500D02*
X109190000Y-92562500D01*
X109790000Y-92962500D02*
X109190000Y-92562500D01*
X109790000Y-92562500D02*
X110290000Y-92562500D01*
X109190000Y-92562500D02*
X109190000Y-92012500D01*
%TO.C,D8*%
X71790000Y-61530000D02*
X71190000Y-61130000D01*
X71790000Y-61130000D02*
X72290000Y-61130000D01*
X70790000Y-61130000D02*
X71190000Y-61130000D01*
X71190000Y-61130000D02*
X71190000Y-61680000D01*
X71190000Y-61130000D02*
X71790000Y-60730000D01*
X71790000Y-60730000D02*
X71790000Y-61530000D01*
X71190000Y-61130000D02*
X71190000Y-60580000D01*
%TO.C,D17*%
X108321666Y-116051955D02*
X108133555Y-116568786D01*
X107945789Y-115915147D02*
X108321666Y-116051955D01*
X108321666Y-116051955D02*
X108509777Y-115535124D01*
X108748673Y-116633044D02*
X108321666Y-116051955D01*
X108885481Y-116257167D02*
X109355327Y-116428177D01*
X109022289Y-115881290D02*
X108748673Y-116633044D01*
X108321666Y-116051955D02*
X109022289Y-115881290D01*
%TO.C,D2*%
X32880762Y-89669783D02*
X32832826Y-89121875D01*
X33443616Y-89219011D02*
X33513341Y-90015967D01*
X32880762Y-89669783D02*
X32928698Y-90217690D01*
X33478479Y-89617489D02*
X33976576Y-89573911D01*
X33513341Y-90015967D02*
X32880762Y-89669783D01*
X32880762Y-89669783D02*
X33443616Y-89219011D01*
X32482284Y-89704645D02*
X32880762Y-89669783D01*
%TO.C,D6*%
X52790000Y-50252500D02*
X52790000Y-51052500D01*
X52790000Y-51052500D02*
X52190000Y-50652500D01*
X52190000Y-50652500D02*
X52190000Y-51202500D01*
X52190000Y-50652500D02*
X52190000Y-50102500D01*
X52190000Y-50652500D02*
X52790000Y-50252500D01*
X51790000Y-50652500D02*
X52190000Y-50652500D01*
X52790000Y-50652500D02*
X53290000Y-50652500D01*
D13*
%TO.C,BAT\u002A\u002A*%
X121005727Y-103479014D02*
X143005727Y-103479014D01*
X143005727Y-103479014D02*
X143005727Y-58479014D01*
X143005727Y-58479014D02*
X121005727Y-58479014D01*
X121005727Y-58479014D02*
X121005727Y-103479014D01*
%TO.C,J2*%
X141342327Y-46903814D02*
X141842327Y-46903814D01*
X145752327Y-44893814D02*
X145752327Y-43643814D01*
X144842327Y-44553814D02*
X141342327Y-44553814D01*
X140732327Y-56063814D02*
X145452327Y-56063814D01*
X145452327Y-45703814D02*
X145652327Y-45703814D01*
X141342327Y-53003814D02*
X141842327Y-53003814D01*
X141342327Y-55453814D02*
X144842327Y-55453814D01*
X141842327Y-53103814D02*
X141342327Y-53103814D01*
X141842327Y-46903814D02*
X141842327Y-47103814D01*
X141342327Y-52903814D02*
X141842327Y-52903814D01*
X144142327Y-43943814D02*
X144142327Y-44553814D01*
X141342327Y-47003814D02*
X141842327Y-47003814D01*
X144842327Y-53503814D02*
X145452327Y-53503814D01*
X145752327Y-43643814D02*
X144502327Y-43643814D01*
X141842327Y-50903814D02*
X141842327Y-51103814D01*
X145452327Y-46503814D02*
X144842327Y-46503814D01*
X141842327Y-52903814D02*
X141842327Y-53103814D01*
X145652327Y-45403814D02*
X145452327Y-45403814D01*
X141342327Y-48903814D02*
X141842327Y-48903814D01*
X144142327Y-56063814D02*
X144142327Y-55453814D01*
X141842327Y-48903814D02*
X141842327Y-49103814D01*
X144842327Y-46503814D02*
X144842327Y-44553814D01*
X142842327Y-43943814D02*
X142842327Y-44553814D01*
X141842327Y-49103814D02*
X141342327Y-49103814D01*
X141342327Y-44553814D02*
X141342327Y-55453814D01*
X140732327Y-43943814D02*
X140732327Y-56063814D01*
X145452327Y-56063814D02*
X145452327Y-43943814D01*
X141342327Y-51003814D02*
X141842327Y-51003814D01*
X142842327Y-56063814D02*
X142842327Y-55453814D01*
X144842327Y-55453814D02*
X144842327Y-53503814D01*
X141342327Y-50903814D02*
X141842327Y-50903814D01*
X141842327Y-47103814D02*
X141342327Y-47103814D01*
X145452327Y-43943814D02*
X140732327Y-43943814D01*
X145552327Y-45703814D02*
X145552327Y-45403814D01*
X141342327Y-49003814D02*
X141842327Y-49003814D01*
X145652327Y-45703814D02*
X145652327Y-45403814D01*
X141842327Y-51103814D02*
X141342327Y-51103814D01*
D14*
%TO.C,D3*%
X31220445Y-70692274D02*
X31783299Y-70241502D01*
X31783299Y-70241502D02*
X31853024Y-71038458D01*
X31220445Y-70692274D02*
X31268381Y-71240181D01*
X31220445Y-70692274D02*
X31172509Y-70144366D01*
X30821967Y-70727136D02*
X31220445Y-70692274D01*
X31818162Y-70639980D02*
X32316259Y-70596402D01*
X31853024Y-71038458D02*
X31220445Y-70692274D01*
%TO.C,D16*%
X89987420Y-110826028D02*
X89848502Y-111613874D01*
X88933153Y-111046303D02*
X89327076Y-111115762D01*
X89917961Y-111219951D02*
X90410365Y-111306775D01*
X89327076Y-111115762D02*
X89422583Y-110574118D01*
X89327076Y-111115762D02*
X89987420Y-110826028D01*
X89848502Y-111613874D02*
X89327076Y-111115762D01*
X89327076Y-111115762D02*
X89231570Y-111657406D01*
%TD*%
M02*
