M48
; DRILL file {KiCad (6.0.0)} date Thu Dec 29 10:21:41 2022
; FORMAT={-:-/ absolute / metric / decimal}
; #@! TF.CreationDate,2022-12-29T10:21:41-08:00
; #@! TF.GenerationSoftware,Kicad,Pcbnew,(6.0.0)
; #@! TF.FileFunction,Plated,1,2,PTH
FMAT,2
METRIC
; #@! TA.AperFunction,Plated,PTH,ViaDrill
T1C0.400
; #@! TA.AperFunction,Plated,PTH,ComponentDrill
T2C0.750
; #@! TA.AperFunction,Plated,PTH,ComponentDrill
T3C1.000
; #@! TA.AperFunction,Plated,PTH,ComponentDrill
T4C1.016
%
G90
G05
T1
X25.31Y-95.0
X26.531Y-76.409
X31.406Y-72.394
X31.586Y-89.783
X32.007Y-68.99
X33.246Y-108.761
X34.873Y-89.495
X36.533Y-108.473
X39.026Y-56.138
X48.668Y-75.188
X50.598Y-69.703
X50.86Y-89.054
X51.726Y-52.074
X54.012Y-50.55
X54.012Y-69.6
X54.19Y-88.752
X57.06Y-56.9
X57.822Y-38.104
X66.966Y-29.976
X67.22Y-67.822
X67.474Y-48.772
X69.86Y-43.846
X69.86Y-80.412
X69.89Y-61.13
X72.82Y-40.631
X73.062Y-61.218
X73.062Y-80.004
X80.042Y-37.004
X86.27Y-57.408
X87.032Y-75.696
X88.047Y-110.89
X88.78Y-88.924
X88.8Y-50.804
X88.89Y-69.703
X91.297Y-111.299
X92.112Y-50.55
X92.112Y-69.6
X92.112Y-99.064
X92.19Y-88.752
X98.716Y-40.39
X105.564Y-94.746
X107.1Y-115.607
X107.748Y-73.513
X107.85Y-92.46
X107.89Y-54.462
X109.374Y-98.556
X110.201Y-116.736
X111.162Y-73.41
X111.19Y-54.462
X111.261Y-92.634
X112.168Y-97.032
X112.676Y-98.302
X112.686Y-60.456
X112.686Y-103.636
X113.702Y-79.506
X115.096Y-41.79
X116.994Y-54.614
X117.502Y-58.424
X118.264Y-54.868
X119.984Y-47.687
X120.042Y-93.73
X120.052Y-45.216
X121.322Y-117.606
X122.338Y-106.938
X124.208Y-51.312
X125.045Y-123.562
X127.903Y-125.212
X133.514Y-112.526
X134.165Y-38.637
X135.142Y-41.648
X135.282Y-40.517
X135.638Y-43.006
X135.917Y-39.602
X138.33Y-51.312
X138.528Y-46.232
X138.528Y-53.852
X138.584Y-48.518
T2
X142.264Y-112.095
X143.264Y-110.363
X143.642Y-46.004
X143.642Y-48.004
X143.642Y-50.004
X143.642Y-52.004
X143.642Y-54.004
T3
X75.592Y-102.62
X75.592Y-105.16
X75.592Y-107.7
X75.592Y-110.24
T4
X125.513Y-44.01
X125.513Y-45.915
X128.688Y-37.66
X128.688Y-40.2
X131.228Y-37.66
X131.228Y-40.2
X134.403Y-44.01
X134.403Y-45.915
T0
M30
