%TF.GenerationSoftware,KiCad,Pcbnew,(6.0.0)*%
%TF.CreationDate,2022-12-29T10:21:43-08:00*%
%TF.ProjectId,mine,6d696e65-2e6b-4696-9361-645f70636258,v1.0.0*%
%TF.SameCoordinates,Original*%
%TF.FileFunction,Profile,NP*%
%FSLAX46Y46*%
G04 Gerber Fmt 4.6, Leading zero omitted, Abs format (unit mm)*
G04 Created by KiCad (PCBNEW (6.0.0)) date 2022-12-29 10:21:43*
%MOMM*%
%LPD*%
G01*
G04 APERTURE LIST*
%TA.AperFunction,Profile*%
%ADD10C,0.150000*%
%TD*%
%TA.AperFunction,Profile*%
%ADD11C,0.050000*%
%TD*%
G04 APERTURE END LIST*
D10*
X59000000Y-24299999D02*
G75*
G03*
X58000000Y-25330000I73910J-1072195D01*
G01*
X133400000Y-137300000D02*
G75*
G03*
X134800000Y-137000000I545751J869827D01*
G01*
X88300000Y-118800000D02*
X97850000Y-120500000D01*
D11*
X49100000Y-111300000D02*
G75*
G03*
X49100000Y-111300000I-1700000J0D01*
G01*
D10*
X37750000Y-52200000D02*
G75*
G03*
X39000000Y-50800000I-78488J1328114D01*
G01*
X57000000Y-32900000D02*
G75*
G03*
X58000000Y-31900000I-1J1000001D01*
G01*
X134800000Y-137000000D02*
X146300000Y-116900000D01*
D11*
X85600000Y-33600000D02*
G75*
G03*
X85600000Y-33600000I-1700000J0D01*
G01*
D10*
X88300000Y-118800000D02*
X48300000Y-115200000D01*
X84700000Y-24300000D02*
X59000000Y-24300000D01*
X146300000Y-116900000D02*
G75*
G03*
X146500000Y-115500000I-5592043J1513149D01*
G01*
X17600000Y-54100001D02*
G75*
G03*
X16700000Y-55200000I24994J-938631D01*
G01*
X58000000Y-25330000D02*
X58000000Y-31900000D01*
X104000000Y-33900000D02*
G75*
G03*
X103000000Y-32900000I-982846J17154D01*
G01*
X85600000Y-31000000D02*
X85600000Y-25300000D01*
X104000000Y-35700000D02*
X104000000Y-33900000D01*
X16700000Y-55200000D02*
X22000000Y-116500000D01*
X40000000Y-32900000D02*
G75*
G03*
X39000000Y-33900000I43579J-1043579D01*
G01*
D11*
X119542327Y-100203814D02*
G75*
G03*
X119542327Y-100203814I-1700000J0D01*
G01*
D10*
X23100000Y-117400000D02*
X48300000Y-115200000D01*
X146500000Y-37700000D02*
G75*
G03*
X145470000Y-36700000I-1015001J-15001D01*
G01*
X37750000Y-52200000D02*
X17600000Y-54100000D01*
X105020000Y-36700000D02*
X145470000Y-36700000D01*
X22000000Y-116500000D02*
G75*
G03*
X23100000Y-117400000I995255J94200D01*
G01*
X57000000Y-32900000D02*
X40000000Y-32900000D01*
X85599999Y-25300000D02*
G75*
G03*
X84700000Y-24300000I-937746J61028D01*
G01*
X146500000Y-115500000D02*
X146500000Y-37700000D01*
D11*
X145200000Y-39500000D02*
G75*
G03*
X145200000Y-39500000I-1700000J0D01*
G01*
D10*
X115100000Y-126750000D02*
X133400000Y-137300000D01*
X97850000Y-120500000D02*
X115100000Y-126750000D01*
X85600000Y-31000000D02*
G75*
G03*
X87600000Y-32900000I1987291J89253D01*
G01*
X103999999Y-35700000D02*
G75*
G03*
X105020000Y-36700000I1003068J2929D01*
G01*
X103000000Y-32900000D02*
X87600000Y-32900000D01*
X39000000Y-33900000D02*
X39000000Y-50800000D01*
D11*
X42500000Y-53500000D02*
G75*
G03*
X42500000Y-53500000I-1700000J0D01*
G01*
M02*
