M48
; DRILL file {KiCad (6.0.0)} date Thu Dec 29 10:21:41 2022
; FORMAT={-:-/ absolute / metric / decimal}
; #@! TF.CreationDate,2022-12-29T10:21:41-08:00
; #@! TF.GenerationSoftware,Kicad,Pcbnew,(6.0.0)
; #@! TF.FileFunction,NonPlated,1,2,NPTH
FMAT,2
METRIC
; #@! TA.AperFunction,NonPlated,NPTH,ComponentDrill
T1C1.702
; #@! TA.AperFunction,NonPlated,NPTH,ComponentDrill
T2C3.000
; #@! TA.AperFunction,NonPlated,NPTH,ComponentDrill
T3C3.988
%
G90
G05
T1
X26.073Y-66.124
X27.733Y-85.101
X29.393Y-104.079
X36.194Y-65.238
X37.854Y-84.216
X39.515Y-103.193
X47.46Y-45.652
X47.46Y-64.703
X47.46Y-83.752
X57.62Y-45.652
X57.62Y-64.703
X57.62Y-83.752
X66.46Y-37.08
X66.46Y-56.13
X66.46Y-75.18
X76.62Y-37.08
X76.62Y-56.13
X76.62Y-75.18
X85.46Y-45.652
X85.46Y-64.703
X85.46Y-83.752
X85.537Y-105.37
X95.543Y-107.135
X95.62Y-45.652
X95.62Y-64.703
X95.62Y-83.752
X104.46Y-49.462
X104.46Y-68.513
X104.46Y-87.562
X105.587Y-109.736
X114.62Y-49.462
X114.62Y-68.513
X114.62Y-87.562
X115.134Y-113.211
X124.574Y-117.516
X133.373Y-122.596
T2
X27.116Y-63.483
X28.16Y-60.842
X28.777Y-82.46
X29.821Y-79.819
X30.437Y-101.438
X31.481Y-98.797
X33.221Y-60.399
X34.707Y-62.818
X34.881Y-79.376
X36.368Y-81.796
X36.542Y-98.354
X38.028Y-100.773
X48.73Y-43.112
X48.73Y-62.162
X48.73Y-81.212
X50.0Y-40.572
X50.0Y-59.622
X50.0Y-78.672
X55.08Y-40.572
X55.08Y-59.622
X55.08Y-78.672
X56.35Y-43.112
X56.35Y-62.162
X56.35Y-81.212
X67.73Y-34.54
X67.73Y-53.59
X67.73Y-72.64
X69.0Y-32.0
X69.0Y-51.05
X69.0Y-70.1
X74.08Y-32.0
X74.08Y-51.05
X74.08Y-70.1
X75.35Y-34.54
X75.35Y-53.59
X75.35Y-72.64
X86.73Y-43.112
X86.73Y-62.162
X86.73Y-81.212
X87.229Y-103.089
X88.0Y-40.572
X88.0Y-59.622
X88.0Y-78.672
X88.921Y-100.809
X93.08Y-40.572
X93.08Y-59.622
X93.08Y-78.672
X93.924Y-101.691
X94.35Y-43.112
X94.35Y-62.162
X94.35Y-81.212
X94.733Y-104.413
X105.73Y-46.922
X105.73Y-65.972
X105.73Y-85.022
X107.0Y-44.383
X107.0Y-63.432
X107.0Y-82.483
X107.649Y-107.783
X109.711Y-105.831
X112.08Y-44.383
X112.08Y-63.432
X112.08Y-82.483
X113.35Y-46.922
X113.35Y-65.972
X113.35Y-85.022
X114.485Y-107.568
X114.81Y-110.389
X126.944Y-115.952
X129.314Y-114.387
X133.543Y-119.762
X133.713Y-116.927
T3
X31.133Y-65.681
X32.794Y-84.658
X34.454Y-103.636
X52.54Y-45.652
X52.54Y-64.703
X52.54Y-83.752
X71.54Y-37.08
X71.54Y-56.13
X71.54Y-75.18
X90.54Y-45.652
X90.54Y-64.703
X90.54Y-83.752
X90.54Y-106.252
X109.54Y-49.462
X109.54Y-68.513
X109.54Y-87.562
X110.361Y-111.473
X128.974Y-120.056
T0
M30
