%TF.GenerationSoftware,KiCad,Pcbnew,(6.0.0)*%
%TF.CreationDate,2022-12-29T10:21:43-08:00*%
%TF.ProjectId,mine,6d696e65-2e6b-4696-9361-645f70636258,v1.0.0*%
%TF.SameCoordinates,Original*%
%TF.FileFunction,Soldermask,Top*%
%TF.FilePolarity,Negative*%
%FSLAX46Y46*%
G04 Gerber Fmt 4.6, Leading zero omitted, Abs format (unit mm)*
G04 Created by KiCad (PCBNEW (6.0.0)) date 2022-12-29 10:21:43*
%MOMM*%
%LPD*%
G01*
G04 APERTURE LIST*
G04 Aperture macros list*
%AMRoundRect*
0 Rectangle with rounded corners*
0 $1 Rounding radius*
0 $2 $3 $4 $5 $6 $7 $8 $9 X,Y pos of 4 corners*
0 Add a 4 corners polygon primitive as box body*
4,1,4,$2,$3,$4,$5,$6,$7,$8,$9,$2,$3,0*
0 Add four circle primitives for the rounded corners*
1,1,$1+$1,$2,$3*
1,1,$1+$1,$4,$5*
1,1,$1+$1,$6,$7*
1,1,$1+$1,$8,$9*
0 Add four rect primitives between the rounded corners*
20,1,$1+$1,$2,$3,$4,$5,0*
20,1,$1+$1,$4,$5,$6,$7,0*
20,1,$1+$1,$6,$7,$8,$9,0*
20,1,$1+$1,$8,$9,$2,$3,0*%
%AMHorizOval*
0 Thick line with rounded ends*
0 $1 width*
0 $2 $3 position (X,Y) of the first rounded end (center of the circle)*
0 $4 $5 position (X,Y) of the second rounded end (center of the circle)*
0 Add line between two ends*
20,1,$1,$2,$3,$4,$5,0*
0 Add two circle primitives to create the rounded ends*
1,1,$1,$2,$3*
1,1,$1,$4,$5*%
G04 Aperture macros list end*
%ADD10C,3.100000*%
%ADD11C,1.801800*%
%ADD12C,4.087800*%
%ADD13RoundRect,0.050000X1.275000X1.250000X-1.275000X1.250000X-1.275000X-1.250000X1.275000X-1.250000X0*%
%ADD14RoundRect,0.300000X-0.366266X0.615609X-0.716266X0.009391X0.366266X-0.615609X0.716266X-0.009391X0*%
%ADD15HorizOval,1.300000X-0.238157X0.137500X0.238157X-0.137500X0*%
%ADD16RoundRect,0.050000X-0.450000X-0.600000X0.450000X-0.600000X0.450000X0.600000X-0.450000X0.600000X0*%
%ADD17O,2.850000X1.900000*%
%ADD18C,1.497000*%
%ADD19RoundRect,0.050000X-0.850000X-0.850000X0.850000X-0.850000X0.850000X0.850000X-0.850000X0.850000X0*%
%ADD20O,1.800000X1.800000*%
%ADD21RoundRect,0.050000X-0.395994X-0.636937X0.500581X-0.558497X0.395994X0.636937X-0.500581X0.558497X0*%
%ADD22RoundRect,0.050000X-0.689711X-0.294615X0.089711X-0.744615X0.689711X0.294615X-0.089711X0.744615X0*%
%ADD23RoundRect,0.050000X-0.628074X-0.409907X0.217650X-0.717725X0.628074X0.409907X-0.217650X0.717725X0*%
%ADD24RoundRect,0.300000X-0.625000X0.350000X-0.625000X-0.350000X0.625000X-0.350000X0.625000X0.350000X0*%
%ADD25O,1.850000X1.300000*%
%ADD26RoundRect,0.050000X-0.547352X-0.512743X0.338975X-0.669026X0.547352X0.512743X-0.338975X0.669026X0*%
G04 APERTURE END LIST*
D10*
%TO.C,S4*%
X48730000Y-81212500D03*
X55080000Y-78672500D03*
X56350000Y-81212500D03*
D11*
X57620000Y-83752500D03*
D12*
X52540000Y-83752500D03*
D10*
X50000000Y-78672500D03*
D11*
X47460000Y-83752500D03*
D13*
X59625000Y-81212500D03*
X46698000Y-78672500D03*
%TD*%
D10*
%TO.C,S1*%
X31480882Y-98796521D03*
D12*
X34453968Y-103635814D03*
D11*
X39514637Y-103193063D03*
D10*
X38028094Y-100773416D03*
X30437091Y-101437543D03*
D11*
X29393299Y-104078565D03*
D10*
X36541551Y-98353769D03*
D13*
X41290632Y-100487981D03*
X28191447Y-99084309D03*
%TD*%
D10*
%TO.C,S18*%
X126944075Y-115951701D03*
X133543189Y-119761701D03*
X129313927Y-114386997D03*
X133713337Y-116926997D03*
D11*
X133373041Y-122596406D03*
D12*
X128973632Y-120056406D03*
D11*
X124574223Y-117516406D03*
D13*
X136379422Y-121399201D03*
X126454312Y-112735997D03*
%TD*%
D11*
%TO.C,S9*%
X76620000Y-37080000D03*
D10*
X69000000Y-32000000D03*
D11*
X66460000Y-37080000D03*
D10*
X67730000Y-34540000D03*
X75350000Y-34540000D03*
X74080000Y-32000000D03*
D12*
X71540000Y-37080000D03*
D13*
X78625000Y-34540000D03*
X65698000Y-32000000D03*
%TD*%
D14*
%TO.C,REF\u002A\u002A*%
X143264089Y-110362789D03*
D15*
X142264089Y-112094840D03*
%TD*%
D16*
%TO.C,D14*%
X107890000Y-73512500D03*
X111190000Y-73512500D03*
%TD*%
D10*
%TO.C,S15*%
X107000000Y-44382500D03*
D11*
X114620000Y-49462500D03*
D10*
X112080000Y-44382500D03*
D11*
X104460000Y-49462500D03*
D10*
X105730000Y-46922500D03*
D12*
X109540000Y-49462500D03*
D10*
X113350000Y-46922500D03*
D13*
X116625000Y-46922500D03*
X103698000Y-44382500D03*
%TD*%
D10*
%TO.C,S10*%
X93080000Y-78672500D03*
X86730000Y-81212500D03*
D12*
X90540000Y-83752500D03*
D10*
X94350000Y-81212500D03*
X88000000Y-78672500D03*
D11*
X95620000Y-83752500D03*
X85460000Y-83752500D03*
D13*
X97625000Y-81212500D03*
X84698000Y-78672500D03*
%TD*%
D16*
%TO.C,D15*%
X107890000Y-54462500D03*
X111190000Y-54462500D03*
%TD*%
D11*
%TO.C,S5*%
X47460000Y-64702500D03*
D10*
X50000000Y-59622500D03*
X56350000Y-62162500D03*
X48730000Y-62162500D03*
D12*
X52540000Y-64702500D03*
D11*
X57620000Y-64702500D03*
D10*
X55080000Y-59622500D03*
D13*
X59625000Y-62162500D03*
X46698000Y-59622500D03*
%TD*%
D17*
%TO.C,MCU1*%
X121863008Y-38611814D03*
X121863008Y-41151814D03*
X121863008Y-43691814D03*
X121863008Y-46231814D03*
X121863008Y-48771814D03*
X121863008Y-51311814D03*
X121863008Y-53851814D03*
X138052928Y-53851814D03*
X138052928Y-51311814D03*
X138052928Y-48771814D03*
X138052928Y-46231814D03*
X138052928Y-43691814D03*
X138052928Y-41151814D03*
X138052928Y-38611814D03*
D18*
X128687968Y-37659814D03*
X131227968Y-37659814D03*
X128687968Y-40199814D03*
X131227968Y-40199814D03*
X125512968Y-45914814D03*
X134402968Y-45914814D03*
X125512968Y-44009814D03*
X134402968Y-44009814D03*
%TD*%
D19*
%TO.C,REF\u002A\u002A*%
X75592327Y-102619814D03*
D20*
X75592327Y-105159814D03*
X75592327Y-107699814D03*
X75592327Y-110239814D03*
%TD*%
D16*
%TO.C,D12*%
X88890000Y-50652500D03*
X92190000Y-50652500D03*
%TD*%
D11*
%TO.C,S7*%
X76620000Y-75180000D03*
D12*
X71540000Y-75180000D03*
D10*
X75350000Y-72640000D03*
X69000000Y-70100000D03*
X74080000Y-70100000D03*
D11*
X66460000Y-75180000D03*
D10*
X67730000Y-72640000D03*
D13*
X78625000Y-72640000D03*
X65698000Y-70100000D03*
%TD*%
D10*
%TO.C,S8*%
X69000000Y-51050000D03*
D11*
X66460000Y-56130000D03*
D10*
X75350000Y-53590000D03*
X74080000Y-51050000D03*
X67730000Y-53590000D03*
D12*
X71540000Y-56130000D03*
D11*
X76620000Y-56130000D03*
D13*
X78625000Y-53590000D03*
X65698000Y-51050000D03*
%TD*%
D12*
%TO.C,S13*%
X109540000Y-87562500D03*
D10*
X107000000Y-82482500D03*
D11*
X114620000Y-87562500D03*
D10*
X105730000Y-85022500D03*
X113350000Y-85022500D03*
X112080000Y-82482500D03*
D11*
X104460000Y-87562500D03*
D13*
X116625000Y-85022500D03*
X103698000Y-82482500D03*
%TD*%
D16*
%TO.C,D4*%
X50890000Y-88752500D03*
X54190000Y-88752500D03*
%TD*%
D10*
%TO.C,S3*%
X27116457Y-63482525D03*
D11*
X26072665Y-66123547D03*
D10*
X33220917Y-60398751D03*
X34707460Y-62818398D03*
X28160248Y-60841503D03*
D12*
X31133334Y-65680796D03*
D11*
X36194003Y-65238045D03*
D13*
X37969998Y-62532963D03*
X24870813Y-61129291D03*
%TD*%
D21*
%TO.C,D1*%
X33246026Y-108760595D03*
X36533468Y-108472981D03*
%TD*%
D16*
%TO.C,D11*%
X88890000Y-69702500D03*
X92190000Y-69702500D03*
%TD*%
D12*
%TO.C,S14*%
X109540000Y-68512500D03*
D11*
X104460000Y-68512500D03*
D10*
X113350000Y-65972500D03*
X112080000Y-63432500D03*
X105730000Y-65972500D03*
X107000000Y-63432500D03*
D11*
X114620000Y-68512500D03*
D13*
X116625000Y-65972500D03*
X103698000Y-63432500D03*
%TD*%
D16*
%TO.C,D10*%
X88890000Y-88752500D03*
X92190000Y-88752500D03*
%TD*%
%TO.C,D7*%
X69890000Y-80180000D03*
X73190000Y-80180000D03*
%TD*%
D22*
%TO.C,D18*%
X125044690Y-123561533D03*
X127902574Y-125211533D03*
%TD*%
D16*
%TO.C,D9*%
X69890000Y-42080000D03*
X73190000Y-42080000D03*
%TD*%
%TO.C,D5*%
X50890000Y-69702500D03*
X54190000Y-69702500D03*
%TD*%
%TO.C,D13*%
X107890000Y-92562500D03*
X111190000Y-92562500D03*
%TD*%
D10*
%TO.C,S12*%
X88000000Y-40572500D03*
X94350000Y-43112500D03*
D11*
X95620000Y-45652500D03*
X85460000Y-45652500D03*
D12*
X90540000Y-45652500D03*
D10*
X93080000Y-40572500D03*
X86730000Y-43112500D03*
D13*
X97625000Y-43112500D03*
X84698000Y-40572500D03*
%TD*%
D12*
%TO.C,S2*%
X32793651Y-84658305D03*
D10*
X29820565Y-79819012D03*
D11*
X27732982Y-85101056D03*
D10*
X34881234Y-79376260D03*
X28776774Y-82460034D03*
D11*
X37854320Y-84215554D03*
D10*
X36367777Y-81795907D03*
D13*
X39630315Y-81510472D03*
X26531130Y-80106800D03*
%TD*%
D16*
%TO.C,D8*%
X69890000Y-61130000D03*
X73190000Y-61130000D03*
%TD*%
D23*
%TO.C,D17*%
X107100065Y-115607329D03*
X110201051Y-116735995D03*
%TD*%
D21*
%TO.C,D2*%
X31585709Y-89783085D03*
X34873151Y-89495471D03*
%TD*%
D10*
%TO.C,S16*%
X88920721Y-100808610D03*
D11*
X95542823Y-107134633D03*
X85537177Y-105370367D03*
D12*
X90540000Y-106252500D03*
D10*
X87228949Y-103089489D03*
X93923544Y-101690743D03*
X94733184Y-104412688D03*
D13*
X97958429Y-104981386D03*
X85668886Y-100235224D03*
%TD*%
D16*
%TO.C,D6*%
X50890000Y-50652500D03*
X54190000Y-50652500D03*
%TD*%
D11*
%TO.C,S11*%
X85460000Y-64702500D03*
D10*
X88000000Y-59622500D03*
X93080000Y-59622500D03*
X94350000Y-62162500D03*
X86730000Y-62162500D03*
D12*
X90540000Y-64702500D03*
D11*
X95620000Y-64702500D03*
D13*
X97625000Y-62162500D03*
X84698000Y-59622500D03*
%TD*%
D24*
%TO.C,J2*%
X143642327Y-46003814D03*
D25*
X143642327Y-48003814D03*
X143642327Y-50003814D03*
X143642327Y-52003814D03*
X143642327Y-54003814D03*
%TD*%
D21*
%TO.C,D3*%
X29925392Y-70805576D03*
X33212834Y-70517962D03*
%TD*%
D26*
%TO.C,D16*%
X88046826Y-110890020D03*
X91296692Y-111463058D03*
%TD*%
D10*
%TO.C,S6*%
X50000000Y-40572500D03*
X55080000Y-40572500D03*
X48730000Y-43112500D03*
D12*
X52540000Y-45652500D03*
D10*
X56350000Y-43112500D03*
D11*
X47460000Y-45652500D03*
X57620000Y-45652500D03*
D13*
X59625000Y-43112500D03*
X46698000Y-40572500D03*
%TD*%
D12*
%TO.C,S17*%
X110360659Y-111473199D03*
D10*
X114484941Y-107568292D03*
X109711302Y-105830829D03*
D11*
X115134298Y-113210661D03*
D10*
X114809619Y-110389476D03*
D11*
X105587020Y-109735737D03*
D10*
X107649161Y-107783283D03*
D13*
X117887112Y-111509592D03*
X106608437Y-104701479D03*
%TD*%
M02*
