%TF.GenerationSoftware,KiCad,Pcbnew,(6.0.0)*%
%TF.CreationDate,2022-12-29T10:21:43-08:00*%
%TF.ProjectId,mine,6d696e65-2e6b-4696-9361-645f70636258,v1.0.0*%
%TF.SameCoordinates,Original*%
%TF.FileFunction,Paste,Bot*%
%TF.FilePolarity,Positive*%
%FSLAX46Y46*%
G04 Gerber Fmt 4.6, Leading zero omitted, Abs format (unit mm)*
G04 Created by KiCad (PCBNEW (6.0.0)) date 2022-12-29 10:21:43*
%MOMM*%
%LPD*%
G01*
G04 APERTURE LIST*
G04 Aperture macros list*
%AMRotRect*
0 Rectangle, with rotation*
0 The origin of the aperture is its center*
0 $1 length*
0 $2 width*
0 $3 Rotation angle, in degrees counterclockwise*
0 Add horizontal line*
21,1,$1,$2,0,0,$3*%
G04 Aperture macros list end*
%ADD10R,2.550000X2.500000*%
%ADD11R,0.900000X1.200000*%
%ADD12O,2.750000X1.800000*%
%ADD13RotRect,0.900000X1.200000X5.000000*%
%ADD14RotRect,0.900000X1.200000X330.000000*%
%ADD15RotRect,0.900000X1.200000X340.000000*%
%ADD16RotRect,0.900000X1.200000X350.000000*%
G04 APERTURE END LIST*
D10*
%TO.C,S4*%
X45455000Y-81212500D03*
X58382000Y-78672500D03*
%TD*%
%TO.C,S1*%
X27174553Y-101722978D03*
X39830986Y-98065981D03*
%TD*%
%TO.C,S18*%
X124107842Y-114314201D03*
X136572952Y-118577997D03*
%TD*%
%TO.C,S9*%
X64455000Y-34540000D03*
X77382000Y-32000000D03*
%TD*%
D11*
%TO.C,D14*%
X107890000Y-73512500D03*
X111190000Y-73512500D03*
%TD*%
D10*
%TO.C,S15*%
X102455000Y-46922500D03*
X115382000Y-44382500D03*
%TD*%
%TO.C,S10*%
X83455000Y-81212500D03*
X96382000Y-78672500D03*
%TD*%
D11*
%TO.C,D15*%
X107890000Y-54462500D03*
X111190000Y-54462500D03*
%TD*%
D10*
%TO.C,S5*%
X45455000Y-62162500D03*
X58382000Y-59622500D03*
%TD*%
D12*
%TO.C,MCU1*%
X138052928Y-38611814D03*
X138052928Y-41151814D03*
X138052928Y-43691814D03*
X138052928Y-46231814D03*
X138052928Y-48771814D03*
X138052928Y-51311814D03*
X138052928Y-53851814D03*
X121863008Y-53851814D03*
X121863008Y-51311814D03*
X121863008Y-48771814D03*
X121863008Y-46231814D03*
X121863008Y-43691814D03*
X121863008Y-41151814D03*
X121863008Y-38611814D03*
%TD*%
D11*
%TO.C,D12*%
X88890000Y-50652500D03*
X92190000Y-50652500D03*
%TD*%
D10*
%TO.C,S7*%
X64455000Y-72640000D03*
X77382000Y-70100000D03*
%TD*%
%TO.C,S8*%
X64455000Y-53590000D03*
X77382000Y-51050000D03*
%TD*%
%TO.C,S13*%
X102455000Y-85022500D03*
X115382000Y-82482500D03*
%TD*%
D11*
%TO.C,D4*%
X50890000Y-88752500D03*
X54190000Y-88752500D03*
%TD*%
D10*
%TO.C,S3*%
X23853919Y-63767960D03*
X36510352Y-60110963D03*
%TD*%
D13*
%TO.C,D1*%
X33246026Y-108760595D03*
X36533468Y-108472981D03*
%TD*%
D11*
%TO.C,D11*%
X88890000Y-69702500D03*
X92190000Y-69702500D03*
%TD*%
D10*
%TO.C,S14*%
X102455000Y-65972500D03*
X115382000Y-63432500D03*
%TD*%
D11*
%TO.C,D10*%
X88890000Y-88752500D03*
X92190000Y-88752500D03*
%TD*%
%TO.C,D7*%
X69890000Y-80180000D03*
X73190000Y-80180000D03*
%TD*%
D14*
%TO.C,D18*%
X125044690Y-123561533D03*
X127902574Y-125211533D03*
%TD*%
D11*
%TO.C,D9*%
X69890000Y-42080000D03*
X73190000Y-42080000D03*
%TD*%
%TO.C,D5*%
X50890000Y-69702500D03*
X54190000Y-69702500D03*
%TD*%
%TO.C,D13*%
X107890000Y-92562500D03*
X111190000Y-92562500D03*
%TD*%
D10*
%TO.C,S12*%
X83455000Y-43112500D03*
X96382000Y-40572500D03*
%TD*%
%TO.C,S2*%
X25514236Y-82745469D03*
X38170669Y-79088472D03*
%TD*%
D11*
%TO.C,D8*%
X69890000Y-61130000D03*
X73190000Y-61130000D03*
%TD*%
D15*
%TO.C,D17*%
X107100065Y-115607329D03*
X110201051Y-116735995D03*
%TD*%
D13*
%TO.C,D2*%
X31585709Y-89783085D03*
X34873151Y-89495471D03*
%TD*%
D10*
%TO.C,S16*%
X84003703Y-102520791D03*
X97175380Y-102264129D03*
%TD*%
D11*
%TO.C,D6*%
X50890000Y-50652500D03*
X54190000Y-50652500D03*
%TD*%
D10*
%TO.C,S11*%
X83455000Y-62162500D03*
X96382000Y-59622500D03*
%TD*%
D13*
%TO.C,D3*%
X29925392Y-70805576D03*
X33212834Y-70517962D03*
%TD*%
D16*
%TO.C,D16*%
X88046826Y-110890020D03*
X91296692Y-111463058D03*
%TD*%
D10*
%TO.C,S6*%
X45455000Y-43112500D03*
X58382000Y-40572500D03*
%TD*%
%TO.C,S17*%
X104571668Y-106663167D03*
X117587806Y-108697642D03*
%TD*%
M02*
